<?xml version="1.0" standalone="no"?>
<!DOCTYPE svg PUBLIC "-//W3C//DTD SVG 1.1//EN" "http://www.w3.org/Graphics/SVG/1.1/DTD/svg11.dtd" >
<svg xmlns="http://www.w3.org/2000/svg">
<defs>
  <font id="KGS" horiz-adv-x="2085.4016">
    <font-face font-family="KGS"
      units-per-em="256" ascent="256"
      descent="0" />
    <missing-glyph horiz-adv-x="0" />
    <glyph glyph-name="arrow-down"
      unicode="&#xEA02;"
      horiz-adv-x="256" d="M2.56 122.624L123.136 2.0224A6.845440000000001 6.845440000000001 0 0 1 132.8384 2.0224L253.44 122.624A6.860800000000001 6.860800000000001 0 0 1 253.44 132.3008L249.3952 136.3456A6.845440000000001 6.845440000000001 0 0 1 239.6928 136.3456L137.728 34.3808V249.1392C137.728 252.928 134.656 256 130.8672 256H125.1328A6.860800000000001 6.860800000000001 0 0 1 118.272 249.1392V34.3808L16.3072 136.3456A6.845440000000001 6.845440000000001 0 0 1 6.6048 136.3456L2.56 132.3008A6.860800000000001 6.860800000000001 0 0 1 2.56 122.624z" />
    <glyph glyph-name="youtube"
      unicode="&#xEA03;"
      horiz-adv-x="256" d="M128 0C57.4208 0 0 57.4208 0 128S57.4208 256 128 256S256 198.5792 256 128S198.5792 0 128 0zM128 249.6C60.9536 249.6 6.4 195.0464 6.4 128S60.9536 6.4 128 6.4S249.6 60.9536 249.6 128S195.0464 249.6 128 249.6zM189.3376 158.9248A16.051199999999998 16.051199999999998 0 0 1 178.0224 170.3168C168.0384 173.0048 128 173.0048 128 173.0048S87.9616 173.0048 77.9776 170.3168A16.051199999999998 16.051199999999998 0 0 1 66.6624 158.9248C64.8192 148.6848 63.9232 138.3168 64 127.9232C63.9232 117.5296 64.8192 107.136 66.688 96.9216A15.859199999999998 15.859199999999998 0 0 1 78.0032 85.7088C87.9872 83.0208 128 83.0208 128 83.0208S168.0384 83.0208 178.0224 85.7088A15.859199999999998 15.859199999999998 0 0 1 189.3376 96.9216C191.1808 107.1616 192.0768 117.5296 192 127.9232C192.0768 138.3168 191.1808 148.7104 189.3376 158.9248zM114.9184 108.8768V146.944L148.3776 127.9232L114.9184 108.9024z" />
    <glyph glyph-name="user"
      unicode="&#xEA04;"
      horiz-adv-x="256" d="M218.5216 90.5216C204.5696 104.4736 187.9808 114.7904 169.8816 121.0368C189.2608 134.4 202.0096 156.7488 202.0096 182.016C202.0096 222.8224 168.8064 256.0256 128 256.0256S53.9904 222.7968 53.9904 181.9904C53.9904 156.7232 66.7392 134.3744 86.1184 121.0112C68.0192 114.7648 51.4304 104.448 37.4784 90.496C13.312 66.3296 0 34.2016 0 0H19.9936C19.9936 59.5456 68.4544 108.0064 128 108.0064S236.0064 59.5456 236.0064 0H256C256 34.2016 242.688 66.3296 218.5216 90.5216zM128 128C98.2272 128 74.0096 152.2176 74.0096 181.9904S98.2272 236.0064 128 236.0064S181.9904 211.7888 181.9904 182.016S157.7728 128.0256 128 128.0256z" />
    <glyph glyph-name="shopping-cart"
      unicode="&#xEA05;"
      horiz-adv-x="256" d="M63.0016 211.5072L61.1072 228.5568A30.8352 30.8352 0 0 1 30.4128 256C13.6448 256 0 242.3552 0 225.5872V215.0144H19.9936V225.5872C19.9936 231.3216 24.6784 236.0064 30.4128 236.0064S40.6016 231.8592 41.216 226.3296L59.1616 64.7424C60.5696 51.712 70.4256 41.5488 82.944 39.3984C81.7152 36.3008 80.9984 32.9728 80.9984 29.4912C80.9984 13.2352 94.2336 0 110.4896 0S139.9808 13.2352 139.9808 29.4912C139.9808 32.8192 139.4176 36.0192 138.3936 38.9888H183.552C182.528 35.9936 181.9648 32.8192 181.9648 29.4912C181.9648 13.2352 195.2 0 211.456 0S240.9472 13.2352 240.9472 29.4912S227.712 58.9824 211.456 58.9824H87.8336C83.3024 58.9824 79.5136 62.3872 79.0272 66.8928A8.878079999999999 8.878079999999999 0 0 0 86.8608 76.6208L229.3248 92.5696C244.5312 94.2592000000001 256 107.0848 256 122.3936000000001V211.5072H63.0016zM120.0128 29.5168C120.0128 24.2688 115.7632 20.0192 110.5152 20.0192S101.0176 24.2688 101.0176 29.5168S107.4688 39.0144 110.5152 39.0144C115.7632 39.0144 120.0128 34.7648 120.0128 29.5168zM221.0048 29.5168C221.0048 24.2688 216.7552 20.0192 211.5072 20.0192S202.0096 24.2688 202.0096 29.5168S206.2592 39.0144 211.5072 39.0144S221.0048 34.7648 221.0048 29.5168zM236.0064 122.3936C236.0064 117.2992 232.192 113.024 227.1232 112.4608L84.6592 96.512C81.5872 96.1792 78.6944 95.36 76.032 94.1568L65.2288 191.5136H236.0064V122.3936z" />
    <glyph glyph-name="search"
      unicode="&#xEA06;"
      horiz-adv-x="256" d="M32.128 223.8976C77.3632 267.4944 144.6656 265.7536 186.5216 223.8976C226.5600000000001 183.8592 228.992 120.4992 193.8688 77.6192L256 15.488L240.5632 0.0512L178.432 62.1824C135.552 27.0592 72.1664 29.4912 32.1536 69.5296C-9.7024 111.3856 -11.6736 181.6832 32.1536 223.9232zM171.0848 208.4608C136.9856 242.56 81.6896 242.56 47.5648 208.4608S13.4656 119.0656 47.5648 84.9408C81.6640000000001 50.8416 136.96 50.8416 171.0848 84.9408C205.184 119.04 205.184 174.336 171.0848 208.4608z" />
    <glyph glyph-name="quantity-plus"
      unicode="&#xEA07;"
      horiz-adv-x="256" d="M79.872 81.92H0V174.336H79.872V252.928H176.128V174.336H256V81.92H176.128V3.072H79.872V81.92z" />
    <glyph glyph-name="quantity-minus"
      unicode="&#xEA08;"
      horiz-adv-x="256" d="M0 196.352H256V59.648H0V196.352z" />
    <glyph glyph-name="printer"
      unicode="&#xEA09;"
      horiz-adv-x="256" d="M218.496 191.488H211.5072V218.496C211.5072 239.1808 194.688 256 174.0032 256H81.9968C61.312 256 44.4928 239.1808 44.4928 218.496V191.488H37.504C16.8192 191.488 0 174.6688 0 154.0096V94.0032C0 73.3184 16.8192 56.4992 37.504 56.4992H44.4928V22.5024C44.4928 10.0864 54.5792 -1e-13 66.9952 -1e-13H189.0048C201.4208 -1e-13 211.5072 10.0863999999999 211.5072 22.5023999999999V56.4992H218.496C239.1808 56.4992 256 73.3184 256 94.0032V154.0096C256 174.6944 239.1808 191.5136 218.496 191.5136zM59.4944 218.496C59.4944 230.912 69.5808 240.9984 81.9968 240.9984H174.0032C186.4192 240.9984 196.5056 230.912 196.5056 218.496V191.488H59.4944V218.496zM196.5056 22.5024C196.5056 18.3552 193.152 15.0016 189.0048 15.0016H66.9952C62.848 15.0016 59.4944 18.3552 59.4944 22.5024V96.512H196.5056V22.5024zM240.9984 94.0032C240.9984 81.5872 230.912 71.5008 218.496 71.5008H211.5072V96.512H216.0128C220.16 96.512 223.5136 99.8656 223.5136 104.0128S220.16 111.5136 216.0128 111.5136H39.9872C35.84 111.5136 32.4864 108.16 32.4864 104.0128S35.84 96.512 39.9872 96.512H44.4928V71.5008H37.504C25.088 71.5008 15.0016 81.5872 15.0016 94.0032V154.0096C15.0016 166.4256 25.088 176.512 37.504 176.512H218.4960000000001C230.9120000000001 176.512 240.9984000000001 166.4256 240.9984000000001 154.0096V94.0032zM155.4944 72.0128C155.4944 67.8656 152.1408 64.512 147.9936 64.512H108.0064C103.8592 64.512 100.5056 67.8656 100.5056 72.0128S103.8592 79.5136 108.0064 79.5136H147.9936C152.1408 79.5136 155.4944 76.16 155.4944 72.0128zM155.4944 40.0128C155.4944 35.8656 152.1408 32.512 147.9936 32.512H108.0064C103.8592 32.512 100.5056 35.8656 100.5056 40.0128S103.8592 47.5136 108.0064 47.5136H147.9936C152.1408 47.5136 155.4944 44.16 155.4944 40.0128zM71.5008 152.0128C71.5008 147.8656 68.1472 144.512 64 144.512H39.9872C35.84 144.512 32.4864 147.8656 32.4864 152.0128S35.84 159.5136 39.9872 159.5136H64C68.1472 159.5136 71.5008 156.16 71.5008 152.0128z" />
    <glyph glyph-name="pencil"
      unicode="&#xEA0A;"
      horiz-adv-x="256" d="M212.9408 158.208L72.1408 17.3824C71.424 16.6656 70.528 16.1536 69.5552 15.8976L6.8864 0.2816C6.4512 0.1792 5.9904 0.1024 5.5296 0.1024C5.0688 0.1024 4.6336 0.1536 4.1984 0.256A5.562879999999999 5.562879999999999 0 0 0 0.1536 6.9888L15.8208 69.7088C16.0768 70.6816 16.5888 71.5776 17.3056 72.2944L158.1056 213.1456L212.9408 158.208zM247.8848 232.3456L232.192 248.0384A28.410880000000002 28.410880000000002 0 0 1 192.9728 248.0384L173.7728 228.8384L228.6592000000001 173.952L247.8592 193.152C258.688 203.9808 258.688 221.5424 247.8592 232.3712z" />
    <glyph glyph-name="lower-costs"
      unicode="&#xEA0B;"
      horiz-adv-x="256" d="M128 0C57.4208 0 0 57.4208 0 128S57.4208 256 128 256S256 198.5792 256 128S198.5792 0 128 0zM128 250.3168C60.5696 250.3168 5.6832 195.4304 5.6832 128S60.544 5.6832 128 5.6832S250.3168 60.544 250.3168 128S195.4304 250.3168 128 250.3168zM150.0416 108.4928A4.802560000000001 4.802560000000001 0 0 0 145.9712 113.9456C146.3552 116.5824 148.7872 118.4 151.424 118.016C153.8048 117.6832 155.5456 115.6352 155.5456 113.2544C155.5456 111.872 156.672 110.7456 158.0544 110.7456S160.5632 111.872 160.5632 113.2544A9.94304 9.94304 0 0 1 152.576 122.7264V124.032C152.576 125.4144 151.4496 126.5408 150.0672 126.5408S147.5584 125.4144 147.5584 124.032V122.7264A9.96608 9.96608 0 0 1 139.5456 113.2544A10.178560000000003 10.178560000000003 0 0 1 150.0416 103.5008C152.6784 103.1168 154.496 100.6848 154.112 98.048S151.296 93.5936 148.6592 93.9776C146.304 94.3104 144.5376 96.3584 144.5376 98.7392C144.5376 100.1216 143.4112 101.248 142.0288 101.248S139.52 100.1216 139.52 98.7392A9.94304 9.94304 0 0 1 147.5072 89.2672V88.192C147.5072 86.8096 148.6336 85.6832 150.016 85.6832S152.5248 86.8096 152.5248 88.192V89.2672A9.96608 9.96608 0 0 1 160.5376 98.7392C160.3072 104.32 155.6224 108.6976 150.0416 108.4928zM177.4336 123.3664A32.35072 32.35072 0 0 1 164.1216 135.1424A2.5011200000000002 2.5011200000000002 0 0 1 160.768 134.0416A2.5011200000000002 2.5011200000000002 0 0 1 161.8688 130.688H161.9456C175.6416 124.0576 181.4272 107.6224 174.848 93.9264C174.6944 93.5936 174.5152 93.2864 174.3616 92.9536A2.5088 2.5088 0 0 1 175.3856 89.5744A2.5088 2.5088 0 0 1 178.7648 90.5984C184.2688 100.9664 183.7568 113.4848 177.4336 123.3664zM153.984 138.3424H153.8048C152.4224 138.3424 151.296 137.216 151.296 135.8336S152.4224 133.3248 153.8048 133.3248H153.9584C155.3408 133.3248 156.4672 134.4512 156.4672 135.8336S155.3408 138.3424 153.9584 138.3424zM138.1632 81.0496C124.4672 87.6288 118.6816 104.0896 125.2864 117.7856C125.44 118.1184 125.5936 118.4256 125.7728 118.7584A2.5088 2.5088 0 0 1 124.7488 122.1376A2.5088 2.5088 0 0 1 121.3696 121.1136C112.9472 105.2416 118.9888 85.5808 134.8352 77.1584C135.2192 76.9536 135.6032 76.7488 136.0128 76.5696C137.2416 75.9552 138.752 76.4416 139.3664 77.6704A2.5011200000000002 2.5011200000000002 0 0 1 138.2656 81.024H138.1888zM146.304 78.3872H146.1504C144.768 78.3872 143.6416 77.2864 143.6416 75.904S144.7424 73.3952 146.1248 73.3952H146.304C147.6864 73.3952 148.8128 74.5216 148.8128 75.904S147.6864 78.4128 146.304 78.4128zM161.408 146.8416C161.1008 147.5584 160.7424 148.2496 160.3072 148.8896H166.8096A11.4944 11.4944 0 1 1 166.8096 171.8784H146.7904C150.3744 177.1008 149.0688 184.2688 143.8208 187.8528C141.9008 189.1584 139.6224 189.8752 137.2928 189.8752H76.0576A11.4944 11.4944 0 1 1 76.0576 166.8864H96.0768A11.4944 11.4944 0 0 1 96.0768 153.8816H89.5488A11.4944 11.4944 0 0 1 82.4064 133.376A11.47904 11.47904 0 0 1 82.4064 115.3792A11.47904 11.47904 0 0 1 82.4064 97.3824A11.509760000000002 11.509760000000002 0 0 1 80.5376 81.2288C82.7136 78.4896 86.0416 76.8768 89.5488 76.8768H119.0144C135.04 59.7248 161.92 58.8288 179.072 74.8288C196.224 90.8544 197.12 117.7344 181.12 134.8864A42.434560000000005 42.434560000000005 0 0 1 161.408 146.816zM166.8096 166.8864C170.3936 166.8864 173.312 163.968 173.312 160.384C173.312 156.8 170.3936 153.8816 166.8096 153.8816H105.5488C101.9648 153.8816 99.0464 156.8 99.0464 160.384C99.0464 163.968 101.9648 166.8864 105.5488 166.8864H166.8096zM76.0576 171.8784C72.4736 171.8784 69.5552 174.7968 69.5552 178.3808S72.4736 184.8832 76.0576 184.8832H137.3184C140.9024 184.8832 143.8208 181.9648 143.8208 178.3808S140.9024 171.8784 137.3184 171.8784H76.0576zM89.5488 148.8896H150.8096C151.7824 148.8896 152.7552 148.6592 153.6512 148.224A42.49088 42.49088 0 0 1 119.9872 135.8848H89.5488C85.9648 135.8848 83.0464 138.8032 83.0464 142.3872C83.0464 145.9712 85.9648 148.8896 89.5488 148.8896zM89.5488 130.8928H115.712A42.562560000000005 42.562560000000005 0 0 1 109.2864 117.888H89.5488C85.9648 117.888 83.0464 120.8064 83.0464 124.3904C83.0464 127.9744 85.9648 130.8928 89.5488 130.8928zM89.5488 112.896H108.1344C107.4176 108.5952 107.3664 104.2176 107.9808 99.8912H89.5488C85.9648 99.8912 83.0464 102.8096 83.0464 106.3936C83.0464 109.9776 85.9648 112.896 89.5488 112.896zM89.5488 81.8944C85.9648 81.8944 83.0464 84.8128 83.0464 88.3968C83.0464 91.9808 85.9648 94.8992 89.5488 94.8992H109.0048C110.2592 90.2656 112.2816 85.8624 114.9952 81.8944H89.5488zM150.0416 68.4032C129.3312 68.4032 112.5376 85.1968 112.5376 105.9072000000001S129.3312 143.4112000000001 150.0416 143.4112000000001S187.5456 126.6176000000001 187.5456 105.9072000000001S170.752 68.4288000000001 150.0416 68.4032z" />
    <glyph glyph-name="long-lifetime"
      unicode="&#xEA0C;"
      horiz-adv-x="256" d="M128 0C57.4208 0 0 57.4208 0 128S57.4208 256 128 256S256 198.5792 256 128S198.5792 0 128 0zM128 250.3168C60.5696 250.3168 5.6832 195.4304 5.6832 128S60.544 5.6832 128 5.6832S250.3168 60.544 250.3168 128S195.4304 250.3168 128 250.3168zM93.0816 104.576H71.0912A2.176 2.176 0 0 1 68.9152 102.4V73.2928C68.9152 72.0896 69.888 71.1168 71.0912 71.1168H93.0816C94.2848 71.1168 95.2576 72.0896 95.2576 73.2928V102.3744C95.2576 103.5776 94.2848 104.576 93.0816 104.576zM90.9056 75.4944H73.2928V100.1728H90.9056V75.4688zM131.8144 132.9408H109.824A2.176 2.176 0 0 1 107.648 130.7648V73.3184C107.648 72.1152 108.6208 71.1424 109.824 71.1424H131.8144C133.0176 71.1424 133.9904 72.1152 133.9904 73.3184V130.7648A2.176 2.176 0 0 1 131.8144 132.9408zM129.6384 75.4944H112.0256V128.5888H129.6384V75.4944zM170.5472 161.3312H148.5568A2.176 2.176 0 0 1 146.3808 159.1552V73.3184C146.3808 72.1152 147.3536 71.1424 148.5568 71.1424H170.5472C171.7504 71.1424 172.7232 72.1152 172.7232 73.3184V159.1296A2.176 2.176 0 0 1 170.5472 161.3056zM168.3712 75.4944H150.7584V156.9536H168.3712V75.4944zM164.7104 186.4448L170.5728 199.1168L156.672 197.8368L159.4368 193.92L62.2592 125.2864L64.7936 121.7024L161.92 190.336L164.6848 186.4192z" />
    <glyph glyph-name="list-view"
      unicode="&#xEA0D;"
      horiz-adv-x="256" d="M74.6752 147.9936V108.0064C74.6752 101.376 69.3248 96 62.6944 96H12.0064C5.376 96 0 101.3504 0 107.9808V148.0192C0 154.6496 5.376 160.0256 11.9808 160.0256H62.72C69.3504 160.0256 74.7264 154.6752 74.7264 148.0448H74.6496zM0 67.9936V28.0064C0 21.376 5.3504 16 11.9808 16H62.72C69.3504 16 74.7264 21.3504 74.7264 27.9808V68.0192C74.7264 74.6496 69.3504 80.0256 62.7456 80.0256H12.0064C5.376 80 0 74.6496 0 68.0192zM62.72 240H12.0064C5.376 240 0 234.6496 0 228.0192V188.0064C0 181.376 5.3504 176 11.9808 176H62.72C69.3504 176 74.7264 181.3504 74.7264 187.9808V227.9936C74.7264 234.624 69.3504 240 62.7456 240zM102.7072 16H243.9936C250.624 16 256 21.376 256 27.9808V67.9936C256 74.624 250.624 80 243.9936 80H102.6816C96.0512 80 90.6752 74.6496 90.6752 68.0192V28.0064C90.6752 21.376 96.0256 16 102.656 16H102.7328zM90.6752 227.9936V188.0064C90.6752 181.376 96.0256 176 102.656 176H244.0192C250.6496 176 256.0256 181.376 256.0256 187.9808V227.9936C256.0256 234.624 250.6496 240 244.0192 240H102.6816C96.0512 240 90.6752 234.624 90.6752 228.0192zM102.6816 96H244.0192C250.6496 96 256.0256 101.376 256.0256 107.9808V147.9936C256.0256 154.624 250.6496 159.9744 244.0192 159.9744H102.6816C96.0512 159.9744 90.6752 154.5984 90.6752 147.9936V107.9808C90.6752 101.3504 96.0256 95.9744 102.656 95.9744z" />
    <glyph glyph-name="linkedin"
      unicode="&#xEA0E;"
      horiz-adv-x="256" d="M249.2672000000001 169.0368C246.5536 176.9472 243.1232000000001 184.5248 239.0272 191.6672V191.6928A129.53856000000002 129.53856000000002 0 0 1 191.6928 239.0272H191.6672C184.5248 243.1232 176.9472 246.5536 169.0368 249.2672C156.16 253.6192 142.336 256 128 256S99.84 253.6192 86.9632 249.2672C79.0528 246.5536 71.4752 243.1232 64.3328 239.0272H64.3072A129.53856000000002 129.53856000000002 0 0 1 16.9728 191.6928V191.6672C12.8768 184.5248 9.4464 176.9472 6.7328 169.0368C2.3808 156.16 0 142.336 0 128S2.3808 99.84 6.7328 86.9632C9.4464 79.0528 12.8768 71.4752 16.9728 64.3328V64.3072A129.53856000000002 129.53856000000002 0 0 1 64.3072 16.9728H64.3328C71.4752 12.8768 79.0528 9.4464 86.9632 6.7328C99.84 2.3808 113.664 0 128 0S156.16 2.3808 169.0368 6.7328C176.9472 9.4464 184.5248 12.8768 191.6672 16.9728H191.6928A129.53856000000002 129.53856000000002 0 0 1 239.0272 64.3072V64.3328C243.1232 71.4752 246.5536 79.0528 249.2672 86.9632C253.6192 99.84 256 113.664 256 128S253.6192 156.16 249.2672 169.0368zM128 6.4C60.9536 6.4 6.4 60.9536 6.4 128S60.9536 249.6 128 249.6S249.6 195.0464 249.6 128S195.0464 6.4 128 6.4zM92.7232 64H66.176V149.4528H92.7232V64zM79.4368 161.1008A15.42144 15.42144 0 0 0 63.9232 176.4608A15.42144 15.42144 0 0 0 79.2832 191.9744A15.42144 15.42144 0 0 0 94.7968 176.6144C94.7968 168.0896 87.9616 161.1776 79.4368 161.0752zM192.0768 64H165.5552V105.6C165.5552 115.5072 165.3504 128.2304 151.7568 128.2304S135.8336 117.4528 135.8336 106.3168V64H109.3376V149.4528H134.784V137.7792H135.1424C140.3392 146.6624 149.9648 151.9616 160.256 151.5776C187.136 151.5776 192.0512 133.888 192.0512 110.9248V64z" />
    <glyph glyph-name="instagram"
      unicode="&#xEA0F;"
      horiz-adv-x="256" d="M128 0C57.4208 0 0 57.4208 0 128S57.4208 256 128 256S256 198.5792 256 128S198.5792 0 128 0zM128 249.6C60.9536 249.6 6.4 195.0464 6.4 128S60.9536 6.4 128 6.4S249.6 60.9536 249.6 128S195.0464 249.6 128 249.6zM128 160.7936C109.8752 160.7936 95.1808 146.0992 95.1808 127.9744S109.8752 95.1552 128 95.1552S160.8192 109.8496 160.8192 127.9744C160.8448 146.0736 146.2016 160.768 128.128 160.7936H128zM128 106.6496A21.324800000000003 21.324800000000003 0 1 0 149.3248 127.9744C149.3248 116.1984 139.776 106.6752 128 106.6496zM169.8048 162.1248C169.8048 157.8752 166.3744 154.4448 162.1248 154.4448S154.4448 157.8752 154.4448 162.1248S157.8752 169.8048 162.1248 169.8048A7.654400000000001 7.654400000000001 0 0 0 169.8048 162.2016V162.1248zM191.5648 154.3424A37.93920000000001 37.93920000000001 0 0 1 181.2224 181.1712A38.16448 38.16448 0 0 1 154.3936 191.5136C143.8208 192.1024 112.1536 192.1024 101.6064 191.5136C91.648 191.7184 82.0224 188.032 74.752 181.2224A37.93920000000001 37.93920000000001 0 0 1 64.4096 154.3936C63.8208 143.8208 63.8208 112.1536 64.4096 101.5808A37.93920000000001 37.93920000000001 0 0 1 74.752 74.752C81.9968 67.9424 91.6224 64.2304 101.5808 64.4096C112.1536 63.8208 143.8208 63.8208 154.368 64.4096C164.3264 64.2048 173.952 67.9168 181.1968 74.752C188.0064 81.9968 191.7184 91.6224 191.5392 101.5808C192.128 112.1536 192.128 143.7952 191.5392 154.3424H191.5648zM177.8944 90.24A21.672960000000003 21.672960000000003 0 0 0 165.7344 78.08C157.312 74.752 137.3184 75.52 128 75.52S98.688 74.7776 90.2656 78.08A21.672960000000003 21.672960000000003 0 0 0 78.1056 90.24C74.752 98.6624 75.5456 118.656 75.5456 127.9744S74.8032 157.2864 78.1056 165.7088A21.672960000000003 21.672960000000003 0 0 0 90.2656 177.8688C98.688 181.2224 118.6816 180.4288 128 180.4288S157.312 181.1712 165.7344 177.8688C171.2896 175.6672 175.6928 171.264 177.8944 165.7088C181.2224 157.2864 180.4544 137.2928 180.4544 127.9744S181.2224 98.6624 177.8944 90.24z" />
    <glyph glyph-name="info"
      unicode="&#xEA10;"
      horiz-adv-x="256" d="M128 256C57.3184 256 0 198.6816 0 128S57.3184 0 128 0S256 57.3184 256 128S198.6816 256 128 256zM128 17.8688C67.1744 17.8688 17.8688 67.1744 17.8688 128S67.1744 238.1312 128 238.1312S238.1312 188.8256 238.1312 128C238.0544 67.2 188.8 17.92 128 17.8688zM137.1904 81.0752A12.979200000000002 12.979200000000002 0 1 0 111.232 81.0752A12.979200000000002 12.979200000000002 0 0 0 137.1904 81.0752zM126.4896 192.2816C103.7312 192.2816 93.2864 178.816 93.2864 169.7024C93.2864 164.4032 97.5616 160.1024 102.8608 160.0768H103.3984C112.512 160.0768 108.8 173.056 125.9776 173.056C134.4 173.056 141.1328 169.344 141.1328 161.5872C141.1328 152.4736 131.6864 147.2 126.1312 142.5408A30.899200000000008 30.899200000000008 0 0 1 114.8416 116.9408C114.8416 108.16 117.1968 105.6512 124.1088 105.6512C132.3776 105.6512 134.0416 109.3632 134.0416 112.5632C132.736 120.832 136.448 129.0752 143.488 133.6064C153.984 140.6208 160.8704 151.9104 162.3552 164.4288C162.2784 180.2496 147.968 192.2304 126.464 192.2304z" />
    <glyph glyph-name="hardest-material-"
      unicode="&#xEA11;"
      horiz-adv-x="256" d="M128.4352 0C58.0864 0 0.8704 57.2416 0.8704 127.5648S58.0864 255.1552 128.4352 255.1552S256 197.9392 256 127.5904S198.784 0.0256 128.4352 0.0256zM128.4352 249.472C61.2096 249.472 6.528 194.7904 6.528 127.5648S61.2096 5.6576 128.4352 5.6576S250.3424 60.3392 250.3424 127.5648S195.6352 249.472 128.4352 249.472zM192.1792 148.9664C192.1792 149.1712 192.128 149.3504 192.0512 149.5296C192.0512 149.5808 192.0256 149.6576 192 149.7088S192 149.76 192 149.7856L175.0016 183.808S174.9248 183.9104 174.8736 183.9872A2.2604800000000003 2.2604800000000003 0 0 1 174.2336 184.6528A1.7971200000000003 1.7971200000000003 0 0 1 173.5424 184.9344L173.1072 184.9856H83.7632S83.6096 184.9856 83.5584 184.96C83.4816 184.96 83.4048 184.96 83.3536 184.9344C83.0976 184.8832 82.8672 184.8064 82.6624 184.6784A1.9456000000000002 1.9456000000000002 0 0 1 82.1504 184.1664C82.0992 184.1152 82.0736 184.064 82.0224 183.9872C81.9968 183.936 81.9456 183.8848 81.8944 183.808L64.896 149.7856V149.7088C64.896 149.6832 64.8448 149.6064 64.8448 149.5552C64.768 149.376 64.7424 149.1712 64.7168 148.9664V148.7616C64.7168 148.5056 64.768 148.2752 64.8704 148.0192C64.8704 148.0192 64.8704 147.968 64.896 147.968C64.9728 147.8144 65.0752 147.6608 65.1776 147.5072L126.848 70.9632S126.9248 70.912 126.9504 70.8864L127.0528 70.784L127.2064 70.6304C127.36 70.528 127.5392 70.4256 127.6928 70.3488C127.744 70.3488 127.8208 70.272 127.872 70.272C128.2816 70.144 128.7168 70.144 129.1264 70.272S129.2544 70.3232 129.3056 70.3488A0.768 0.768 0 0 1 129.5104 70.4512C129.6128 70.5024 129.7152 70.5536 129.792 70.6304L129.9456 70.784L130.048 70.8864C130.0992 70.9376 130.1248 70.9376 130.1504 70.9632L191.8208 147.5072C191.9232 147.6352 192.0256 147.7888 192.1024 147.968L192.128 148.0192C192.2304 148.2496 192.2816 148.5056 192.2816 148.7616V148.8384C192.2816 148.864 192.2304 148.9152 192.2304 148.9664zM169.2416 180.736L151.7312 152.7296L132.48 180.736H169.2672zM147.7632 150.9632H109.0816L128.4352 179.0976L147.7888 150.9632zM124.3648 180.736L105.1136 152.7296L87.6032 180.736H124.3904zM83.968 178.5344L101.1968 150.9888H70.1952L83.968 178.5344zM71.1936 146.7392H103.4752L123.1872 82.2272L71.2192 146.7392zM128.4096 79.5904L107.904 146.7392H148.9408L128.4352 79.5904zM133.6576 82.2272L153.344 146.7392H185.6256L133.6576 82.2272zM155.6224 150.9888L172.8512 178.5344L186.624 150.9888H155.6224z" />
    <glyph glyph-name="hamburguer"
      unicode="&#xEA12;"
      horiz-adv-x="256" d="M11.648 186.1888H244.352C250.7776 186.1888 256 191.4112 256 197.8368S250.7776 209.4848 244.352 209.4848H11.648C5.2224 209.4848 0 204.2624 0 197.8368S5.2224 186.1888 11.648 186.1888zM244.352 139.648H11.648C5.2224 139.648 0 134.4256 0 128S5.2224 116.352 11.648 116.352H244.352C250.7776 116.352 256 121.5744 256 128S250.7776 139.648 244.352 139.648zM244.352 69.8112H11.648C5.2224 69.8112 0 64.5888 0 58.1632S5.2224 46.5152 11.648 46.5152H244.352C250.7776 46.5152 256 51.7376 256 58.1632S250.7776 69.8112 244.352 69.8112z" />
    <glyph glyph-name="grid-view"
      unicode="&#xEA13;"
      horiz-adv-x="256" d="M74.6752 228.0192V188.032C74.6752 181.4016 69.3248 176.0256 62.6944 176.0256H12.0064A11.94752 11.94752 0 0 0 0 187.9808V228.0192C0 234.6496 5.376 240.0256 11.9808 240.0256H62.72C69.3504 240.0256 74.7264 234.6752 74.7264 228.0448H74.6496zM165.3248 108.0064V147.9936C165.3248 154.624 159.9488 159.9744 153.3184 159.9744H102.656C96.0256 159.9744 90.6496 154.5984 90.6496 147.9936V107.9808C90.6496 101.3504 96 95.9744 102.6304 95.9744H153.3184C159.9488 95.9744 165.3248 101.3248 165.3248 107.9552V108.0064zM181.3248 227.9936V188.0064C181.3248 181.376 186.6752 176 193.3056 176H243.9936C250.624 176 256 181.376 256 187.9808V228.0192C256 234.6496 250.624 240 243.9936 240H193.28A12.006400000000001 12.006400000000001 0 0 1 181.3248 228.0192zM165.3248 188.0064V228.0192C165.3248 234.6496 159.9488 240 153.3184 240H102.656C96.0256 240 90.6496 234.624 90.6496 228.0192V188.0064C90.6496 181.376 96 176 102.6304 176H153.3184C159.9488 176 165.3248 181.3504 165.3248 187.9808zM62.72 160.0256H12.0064C5.376 160 0 154.6496 0 148.0192V108.0064C0 101.376 5.3504 96 11.9808 96H62.72C69.3504 96 74.7264 101.3504 74.7264 107.9808V148.0192C74.7264 154.6496 69.3504 160.0256 62.7456 160.0256zM0 68.0192V28.032C0 21.4016 5.3504 16.0256 11.9808 16.0256H62.72C69.3504 16.0256 74.7264 21.376 74.7264 28.0064V68.0448C74.7264 74.6752 69.3504 80.0512 62.7456 80.0512H12.0064C5.376 80 0 74.6496 0 68.0192zM193.28 96H243.9424C250.5728 95.9744 255.9744 101.2992 256 107.9296V147.9936C256 154.624 250.624 159.9744 243.9936 159.9744H193.28C186.6496 159.9744 181.2736 154.5984 181.2736 147.9936V107.9808C181.2736 101.3504 186.6496 96 193.28 96zM193.28 16H243.9424C250.5728 15.9744 255.9744 21.2992 256 27.9296V67.9936C256 74.624 250.624 80 243.9936 80H193.28C186.6496 80 181.2736 74.624 181.2736 68.0192V28.0064C181.2736 21.376 186.6496 16 193.2544 16zM90.6752 67.9936V28.0064C90.6752 21.376 96.0256 16 102.656 16H153.344C159.9744 16 165.3504 21.3504 165.3504 27.9808V68.0192C165.3504 74.6496 159.9744 80.0256 153.3696 80.0256H102.7072C96.0768 80.0256 90.7008 74.6752 90.7008 68.0448z" />
    <glyph glyph-name="footer-catchphrase"
      unicode="&#xEA14;"
      horiz-adv-x="2085.4016" d="M0 78.1824H21.2224V177.9968H0V78.208zM130.304 78.1824V177.9968H109.056V115.328L62.7968 177.9968H40.96V78.208H62.208V143.2832L109.7472 78.2336H130.2784zM239.3344 78.1824V177.9968H218.1376V115.328L171.8784 177.9968H150.0672V78.208H171.2896V143.2832L218.8544 78.2336H239.36zM306.5088 76.3648C334.1568000000001 75.2896 357.4272000000001 96.7936 358.528 124.4416C358.5792 125.6192 358.5792 126.7968 358.528 127.9744C359.3728000000001 155.6224 337.6384000000001 178.7136 309.9904 179.5584C308.8384000000001 179.584 307.6608 179.584 306.5088 179.5584C278.8608 180.736 255.5136 159.2576 254.336 131.6096C254.2848 130.4064 254.2848 129.2032 254.336 128C253.4656 100.352 275.2 77.2352 302.848 76.3648C304.0768 76.3392 305.3056000000001 76.3392 306.5344 76.3648M306.5344 95.1808C287.9744 95.1808 276.1728 109.3632 276.1728 127.9488S287.9744 160.6912 306.5344 160.6912S336.7424000000001 146.6624 336.7424000000001 127.9488S324.9408 95.1808 306.5344 95.1808M425.1392 78.1312L463.5648 177.9712H439.5264L411.8272 101.376L384.1536 177.9712H360.0896L398.5408 78.1824L425.1392 78.1312zM558.8736 78.1312L520.3968 177.9712H493.7984L455.3471999999999 78.1824H479.4367999999999L485.7087999999999 95.104H528.4863999999999L534.7583999999999 78.1824L558.8992 78.1312zM522.6752 113.7664H491.52L507.0848 156.6976L522.6752 113.7664zM602.9824 78.1824V159.2576H631.9872V177.9712H552.4480000000001V159.2576H581.6064000000001V78.1824H603.0080000000002zM689.4848 76.416C717.1071999999999 75.2896 740.4032 96.768 741.5296 124.3904C741.5808 125.5936 741.5808 126.7968 741.5296 128.0256C741.2224 156.8 717.6192 179.8912 688.8448 179.584C660.5056 179.2768 637.5935999999999 156.3648 637.2864 128.0256C636.4159999999999 100.3776 658.0992 77.2608 685.7471999999999 76.3904C686.9504 76.3392 688.1791999999999 76.3648 689.3824 76.3904M689.3824 95.2064C670.8224 95.2064 659.0464 109.3888 659.0464 127.9744S670.848 160.7168 689.3824 160.7168S719.5903999999999 146.688 719.5903999999999 127.9744S707.8144 95.2064 689.3824 95.2064M837.2991999999999 78.1568L814.7711999999999 116.1472C828.2624 119.4752 837.4783999999999 131.9168 836.7359999999999 145.792C836.7359999999999 164.3264 823.8847999999999 177.9456 803.0719999999999 177.9456H756.4031999999999V78.208H777.6255999999998V113.6896H793.1903999999998L812.8255999999999 78.208L837.3247999999999 78.1568zM800.0767999999999 132.2752H777.5999999999999V159.232H800.0767999999999A13.527040000000003 13.527040000000003 0 0 0 814.7968 146.9952A13.527040000000003 13.527040000000003 0 0 0 800.1024 132.2752M888.2176 76.3904C914.9184 76.3904 928.1024 90.112 928.1024 108.3648C928.1024 145.6128 870.8352 135.0144 870.8352 150.7072C870.8352 156.672 875.904 160.5632 884.8896 160.5632C895.5903999999999 160.6912 905.9328 156.8 913.92 149.6832L925.7472 165.504C915.0719999999998 174.976 901.1456 179.968 886.8863999999999 179.4304C863.3855999999998 179.4304 849.0495999999998 165.632 849.0495999999998 149.0944C849.0495999999998 111.488 906.5215999999998 123.648 906.5215999999998 106.2656C906.5215999999998 100.4288 900.9663999999998 95.2064 889.0879999999999 95.2064C877.1071999999998 95.2064 865.6639999999999 100.1472 857.3951999999998 108.8256L845.7727999999998 92.2112A57.73312000000001 57.73312000000001 0 0 1 888.2687999999998 76.3904M1016.2175999999998 76.3904C1042.9951999999998 76.3904 1056.1791999999998 90.112 1056.1791999999998 108.3648C1056.1791999999998 145.6128000000001 998.8863999999998 135.0144 998.8863999999998 150.7072C998.8863999999998 156.672 1003.9551999999998 160.5632 1012.9664 160.5632C1023.6671999999998 160.6912000000001 1034.0095999999999 156.8256 1041.9712 149.6832L1053.7728 165.504C1043.0976 174.976 1029.1712 179.968 1014.912 179.4304C991.4111999999998 179.4304 977.0496 165.632 977.0496 149.0944C977.0496 111.488 1034.5216 123.648 1034.5216 106.2656C1034.5216 100.4288 1028.9664 95.2064 1017.1648 95.2064C1005.184 95.2064 993.7152 100.1216 985.4464 108.8256L973.7472 92.2112000000001A57.6768 57.6768 0 0 1 1016.2176 76.3904000000001M1070.4128 78.1568000000001H1091.6096V177.9968000000001H1070.4128V78.1312000000001zM1200.64 78.1568000000001V177.9968000000001H1179.4432000000002V115.3280000000001L1133.2096000000001 177.9968000000001H1111.3984V78.2080000000001H1132.5952V143.2832L1180.2368 78.2336L1200.6655999999998 78.1568zM1268.864 76.3904000000001C1286.272 75.9808000000001 1302.4 85.4784000000001 1310.464 100.8896000000001L1292.2368 109.6960000000001A26.895359999999997 26.895359999999997 0 0 0 1268.8639999999998 95.2064000000001C1251.6863999999998 95.0272000000001 1237.6064 108.8000000000001 1237.4271999999999 125.9776000000001C1237.4271999999999 126.6432000000001 1237.4271999999999 127.3088000000001 1237.4784 127.9744000000001C1236.5568 145.1008000000001 1249.6896 159.7440000000001 1266.8416 160.6656000000001C1267.5072 160.6912000000001 1268.1984 160.7168000000001 1268.864 160.7168000000001C1278.72 160.5120000000001 1287.68 154.9568000000001 1292.2368000000001 146.2272000000001L1310.4640000000002 155.2128000000001A45.271040000000006 45.271040000000006 0 0 1 1268.8640000000003 179.5584000000001C1238.8096000000003 179.5584000000001 1215.6416000000002 158.7968000000001 1215.6416000000002 128.0000000000001S1238.8352000000002 76.4160000000001 1268.8640000000003 76.4160000000001M1393.7408000000003 78.1824000000001V96.9472000000001H1344.4096000000002V119.7056000000001H1392.6656000000003V138.3936000000001H1344.4096000000002V159.3344000000001H1393.7408000000003V178.0480000000001H1323.1104000000003V78.2592000000001L1393.7408000000003 78.1824000000001zM1490.3552000000002 78.1824000000001V177.9968H1471.7952000000002L1440.3328 146.432L1452.416 133.7344L1469.0303999999999 150.6048V78.208L1490.3552 78.1312zM1539.5840000000003 76.5440000000001C1569.0496000000003 76.5440000000001 1586.0736000000004 97.9200000000001 1586.0736000000004 128.1536000000001C1586.0736000000004 156.2880000000001 1573.3760000000004 179.5584000000001 1543.0144000000005 179.5584000000001C1520.2816000000005 179.5584000000001 1504.8960000000004 164.7872000000001 1504.8960000000004 145.3312000000001C1504.8960000000004 124.0832000000001 1520.8704000000005 112.8960000000001 1538.8672000000004 112.8960000000001C1548.9536000000003 113.0240000000001 1558.4256000000003 117.7600000000001 1564.5696000000003 125.7472000000001V123.4944000000001C1564.5696000000003 109.2864000000001 1556.0704000000003 95.3344000000001 1539.6096000000002 95.3344000000001C1532.1600000000003 95.0272000000001 1524.9408000000003 97.8688000000001 1519.6928000000003 103.1680000000001L1510.2976000000003 86.8608000000001C1518.4640000000004 79.9232000000001 1528.9088000000004 76.2368000000001 1539.6096000000002 76.5184000000001M1544.8320000000003 131.1232000000001C1535.5648000000003 131.1232000000001 1526.4256000000003 135.6032000000001 1526.4256000000003 146.0480000000001C1527.1936000000003 154.9312000000001 1535.0016000000003 161.5104000000001 1543.8848000000003 160.7680000000001C1544.0128000000002 160.7680000000001 1544.1408000000004 160.7680000000001 1544.2688000000003 160.7424000000001C1558.1696000000002 160.7424000000001 1563.5456000000004 150.1184000000001 1564.4416000000003 140.5184000000001A24.92672 24.92672 0 0 0 1544.8576000000003 131.1232000000001M1637.5040000000004 76.4672000000001C1666.0736000000004 76.4672000000001 1678.7456000000004 102.3232000000001 1678.7456000000004 128.0512000000001S1666.0736000000004 179.5072000000001 1637.5040000000004 179.5072000000001S1596.2112000000004 153.8048000000001 1596.2112000000004 128.0512000000001S1608.9600000000005 76.4672000000001 1637.5040000000004 76.4672000000001M1637.5040000000004 95.2832000000001C1623.2704000000003 95.2832000000001 1617.8944000000004 109.6192000000001 1617.8944000000004 128.0512000000001S1623.2704000000003 160.6400000000001 1637.5040000000004 160.6400000000001S1657.1136000000004 146.4576000000001 1657.1136000000004 128.0512000000001S1651.7376000000004 95.2832000000001 1637.5040000000004 95.2832000000001M1732.0448000000004 76.4672000000001C1754.7520000000004 76.4672000000001 1770.2656000000004 91.2640000000001 1770.2656000000004 110.7200000000001C1770.2656000000004 131.9424000000001 1754.1888000000004 143.1552000000001 1736.1920000000005 143.1552000000001C1726.1312000000005 143.0784000000001 1716.6848000000005 138.3168000000001 1710.6176000000005 130.3040000000001C1710.4896000000006 130.9952000000001 1710.4128000000005 131.6864000000001 1710.4384000000005 132.3776000000001C1710.4384000000005 148.2496000000001 1720.7808000000005 160.6656000000001 1735.4240000000004 160.6656000000001C1742.8480000000004 160.9984000000001 1750.0928000000004 158.1824000000002 1755.3152000000005 152.8832000000001L1764.9408000000005 169.2416000000001A44.44672 44.44672 0 0 1 1735.4240000000004 179.5328000000001C1705.9328000000005 179.5328000000001 1688.9344000000003 158.1312000000002 1688.9344000000003 127.9488000000002C1688.9344000000003 99.8144000000002 1701.6064000000003 76.4928000000002 1732.0192000000004 76.4928000000002M1730.7648000000004 95.3088000000002C1716.8896000000004 95.3088000000002 1711.4880000000003 105.9072000000002 1710.5664000000004 115.5328000000002A25.27488 25.27488 0 0 0 1730.1760000000004 124.9536000000002C1739.6224000000004 124.9536000000002 1748.5824000000005 120.4480000000002 1748.5824000000005 110.0032000000002A16.17152 16.17152 0 0 0 1731.0464000000004 95.2832000000002C1730.9440000000004 95.2832000000002 1730.8416000000004 95.2832000000002 1730.7392000000004 95.3088000000002M1910.4 256L1870.2336 215.8336L1830.0928 175.6672V0H2005.7600000000004L2045.8752 40.1664L2086.0416 80.3072V256H1910.4zM2054.016 156.8L1986.8416 156.7488V223.9488H1929.3184V156.7488L1862.1184 156.8V99.2512H1929.3184V32.0768H1986.8416V99.2768H2054.016V156.8256z" />
    <glyph glyph-name="fits-most"
      unicode="&#xEA15;"
      horiz-adv-x="256" d="M128 0C57.4208 0 0 57.4208 0 128S57.4208 256 128 256S256 198.5792 256 128S198.5792 0 128 0zM128 250.3168C60.5696 250.3168 5.6832 195.4304 5.6832 128S60.544 5.6832 128 5.6832S250.3168 60.544 250.3168 128S195.4304 250.3168 128 250.3168zM152.32 116.1728H147.456C147.072 118.1952 146.56 120.192 145.8688 122.112L150.0672 124.544C150.9632 125.056 151.2704 126.208 150.7584 127.104L145.536 136.1408A1.8790400000000003 1.8790400000000003 0 0 1 142.976 136.832L138.752 134.4C137.4208 135.9616 135.9616 137.4208 134.4 138.752L136.832 142.976C137.344 143.872 137.0368 145.024 136.1408 145.536L127.104 150.7328C126.208 151.2448 125.056 150.9376 124.544 150.0416L122.112 145.8432C120.1664 146.5344 118.1952 147.072 116.1728 147.4304V152.2944C116.1728 153.3184 115.328 154.1632 114.304 154.1632H103.8592C102.8352 154.1632 101.9904 153.3184 101.9904 152.2944V147.4304C99.968 147.0464 97.9712 146.5344 96.0512 145.8432L93.6192 150.0416A1.8790400000000003 1.8790400000000003 0 0 1 91.0592 150.7328L82.0224 145.5104C81.1264 144.9984 80.8192 143.8464 81.3312 142.9504L83.7632 138.7264C82.2016 137.3952 80.7424 135.936 79.4112 134.3744L75.1872 136.8064C74.2912 137.3184 73.1392 137.0112 72.6272 136.1152L67.4048 127.0784C66.8928 126.1824 67.2 125.0304 68.096 124.5184L72.2944 122.0864C71.6032 120.1408 71.0656 118.1696 70.7072 116.1472H65.8432C64.8192 116.1472 63.9744 115.3024 63.9744 114.2784V103.8336C63.9744 102.8096 64.8192 101.9648 65.8432 101.9648H70.7072C71.0912 99.9424 71.6032 97.9456 72.2944 96.0256L68.096 93.5936C67.2 93.0816 66.8928 91.9296 67.4048 91.0336L72.6272 81.9968C73.1392 81.1008 74.2912 80.7936 75.1872 81.3056L79.4112 83.7376C80.7424 82.176 82.2016 80.7168 83.7632 79.3856L81.3312 75.1616C80.8192 74.2656 81.1264 73.1136 82.0224 72.6016L91.0592 67.3792C91.9552 66.8672 93.1072 67.1744 93.6192 68.0704L96.0512 72.2688C97.9968 71.5776 99.968 71.04 101.9904 70.6816V65.8176C101.9904 64.7936 102.8352 63.9488 103.8592 63.9488H114.304C115.328 63.9488 116.1728 64.7936 116.1728 65.8176V70.6816C118.1952 71.0656 120.192 71.5776 122.112 72.2688L124.544 68.0704C125.056 67.1744 126.208 66.8672 127.104 67.3792L136.1408 72.6016C137.0368 73.1136 137.344 74.2656 136.832 75.1616L134.4 79.3856C135.9616 80.7168 137.4208000000001 82.176 138.7520000000001 83.7376L142.976 81.3056C143.872 80.7936 145.024 81.1008 145.536 81.9968L150.7584 91.0336C151.2704 91.9296 150.9632 93.0816 150.0672 93.5936L145.8688 96.0256C146.56 97.9712 147.0976 99.9424 147.456 101.9648H152.32C153.344 101.9648 154.1888 102.8096 154.1888 103.8336V114.2784C154.1888 115.3024 153.344 116.1472 152.32 116.1472zM150.4512 105.728H145.8688C144.9216 105.728 144.1536 105.0368 144 104.1152C143.616 101.2992 142.8736 98.5344 141.7984 95.8976C141.44 95.0272 141.7984 94.0288 142.592 93.568L146.56 91.2896L143.2064 85.504L139.2128 87.7824A1.88672 1.88672 0 0 1 136.8064 87.3216C135.0656 85.0944 133.0432 83.072 130.816 81.3056C130.0736 80.7424 129.8944 79.6928 130.3552 78.8992L132.6336 74.9312000000001L126.8224 71.5776000000001L124.544 75.5456A1.85344 1.85344 0 0 1 122.2144 76.3392C119.5776 75.2896 116.8128 74.5472 113.9968 74.1376C113.0752 74.0096 112.384 73.216 112.384 72.2688V67.6864H105.7024V72.2688C105.7024 73.216 105.0112 73.984 104.0896 74.1376C101.2736 74.5216 98.5088 75.264 95.872 76.3392C95.0016 76.6976 94.0032 76.3392 93.5424 75.5456L91.264 71.5776000000001L85.4528 74.9312000000001L87.7312 78.8992C88.192 79.7184 87.9872 80.7424 87.2704 81.3056C85.0432 83.072 83.0208 85.0688 81.28 87.3216A1.8636800000000002 1.8636800000000002 0 0 1 78.8736 87.7824L74.88 85.504L71.552 91.2896L75.52 93.568C76.3392 94.0288 76.672 95.0272 76.3136 95.8976C75.264 98.5344 74.5216 101.2992 74.112 104.1152A1.8790400000000003 1.8790400000000003 0 0 1 72.2432 105.728H67.6608V112.4352H72.2432C73.1904 112.4352 73.9584 113.1264 74.112 114.048C74.496 116.864 75.2384 119.6288 76.3136 122.2656C76.672 123.136 76.3136 124.1344 75.52 124.5952L71.552 126.8736L74.9056 132.6592L78.8992 130.3808C79.7184 129.92 80.7424 130.1248 81.3056 130.8416C83.072 133.0688 85.0688 135.0912 87.3216 136.8576C88.064 137.4208 88.2432 138.4704 87.7824 139.264L85.504 143.232L91.264 146.5856L93.5424 142.6176000000001C94.0032 141.7984 95.0016 141.4656 95.872 141.824C98.5088 142.8736 101.2736 143.6160000000001 104.0896 144.0256C105.0112 144.1536000000001 105.7024 144.9472 105.7024 145.8944V150.4768H112.384V145.8944C112.384 144.9472 113.0752 144.1792 113.9968 144.0256C116.8128 143.6416000000001 119.5776 142.8992 122.2144 141.824C123.0848 141.4656 124.0832 141.824 124.544 142.6176000000001L126.8224 146.5856L132.608 143.232L130.3296 139.264C129.8688 138.4448000000001 130.0736 137.4208000000001 130.7904 136.8576C133.0432 135.0912 135.0656 133.0688 136.832 130.8416C137.3952 130.0992 138.4448 129.92 139.2384 130.3808L143.232 132.6592L146.5856 126.8736L142.6176 124.5952C141.7984 124.1344 141.4656 123.136 141.824 122.2656C142.8736 119.6288 143.616 116.864 144.0256 114.048C144.1536 113.1264 144.9472 112.4352 145.8944 112.4352H150.4768V105.7536zM190.1312 172.1088H186.6752C186.3936 172.8768 186.0864 173.6448 185.728 174.4128L188.1856 176.8448A1.8688 1.8688 0 0 1 188.1856 179.5072L179.5072 188.1856A1.8380800000000002 1.8380800000000002 0 0 1 176.8704 188.1856L174.4128 185.7536C173.6704 186.112 172.9024 186.4192 172.1088 186.7008V190.1568C172.1088 191.1808 171.264 192.0256 170.24 192.0256H157.952C156.928 192.0256 156.0832 191.1808 156.0832 190.1568V186.7008C155.2896 186.4192 154.5216 186.112 153.7792 185.7536L151.3216 188.1856A1.8380800000000002 1.8380800000000002 0 0 1 148.6848 188.1856L140.0064 179.5328A1.8688 1.8688 0 0 1 140.0064 176.8704L142.464 174.4384C142.1056 173.696 141.7984 172.928 141.5168 172.1344H138.0608C137.0368 172.1344 136.192 171.2896 136.192 170.2656V158.0032C136.192 156.9792 137.0368 156.1344 138.0608 156.1344H141.5168C141.7984 155.3664 142.1056 154.5984 142.464 153.8304L140.0064 151.3984A1.8688 1.8688 0 0 1 140.0064 148.736L148.6848 140.0576C149.4272 139.3152 150.6048 139.3152 151.3216 140.0576L153.7792 142.4896C154.5216 142.1312 155.2896 141.824 156.0832 141.5424V138.0864C156.0832 137.0624 156.928 136.2176 157.952 136.2176H170.24C171.264 136.2176 172.1088 137.0624 172.1088 138.0864V141.5424C172.9024 141.824 173.6704 142.1312 174.4128 142.4896L176.8704 140.0576C177.6128 139.3152 178.7904 139.3152 179.5072 140.0576L188.1856 148.7104A1.8688 1.8688 0 0 1 188.1856 151.3728L185.728 153.8048C186.0864 154.5472 186.3936 155.3152 186.6752 156.1088H190.1312C191.1552 156.1088 192 156.9536 192 157.9776V170.24C192 171.264 191.1552 172.1088 190.1312 172.1088zM188.2624 159.8464H185.3184C184.4736 159.8464 183.7568 159.2832 183.5264 158.4896C183.1168 157.056 182.5536 155.6736 181.8112 154.3424C181.4016 153.6 181.5296 152.704 182.1184 152.1152L184.192 150.0416L178.1504 144.0256L176.0512 146.0992A1.8636800000000002 1.8636800000000002 0 0 1 173.824 146.4064C172.5184 145.6896 171.1104 145.1008 169.6768 144.6912C168.8832 144.4608 168.32 143.7184 168.32 142.8992V139.9552H159.7952V142.8992C159.7952 143.744 159.232 144.4608 158.4384 144.6912C157.0048 145.1008 155.5968 145.664 154.2912 146.4064A1.8585599999999998 1.8585599999999998 0 0 1 152.064 146.0992L149.9648 144.0256L143.9232 150.0416L145.9968 152.1152C146.5856 152.704 146.7136000000001 153.6256 146.304 154.3424A19.660800000000002 19.660800000000002 0 0 0 144.5888 158.4896A1.88928 1.88928 0 0 1 142.7968 159.8464H139.8272V168.3712H142.7712C143.616 168.3712 144.3328 168.9344 144.5632 169.728C144.9728 171.1616 145.536 172.544 146.2784 173.8752C146.688 174.6176 146.56 175.5136 145.9712 176.1024L143.8976 178.176L149.9392 184.192L152.0384 182.1184C152.6272 181.5296 153.5488 181.4016 154.2656 181.8112C155.5712 182.528 156.9792 183.1168 158.4128 183.5264C159.2064 183.7568 159.7696 184.4992 159.7696 185.3184V188.2624H168.2944V185.3184C168.2944 184.4736 168.8576 183.7568 169.6512 183.5264C171.0848 183.1168 172.4928 182.5536 173.7984 181.8112C174.5408 181.4016 175.4368 181.5296 176.0256 182.1184L178.1248 184.192L184.1664 178.176L182.0928 176.1024C181.504 175.5136 181.376 174.592 181.7856 173.8752C182.5024 172.5696 183.0912 171.1872 183.5008 169.728C183.7312 168.9344 184.4736 168.3712 185.2928 168.3712H188.2368V159.8464zM164.096 179.0464C161.6384 179.0464 159.2064 178.432 157.0304 177.28C156.1088 176.7936 155.776 175.6672 156.2624 174.7456S157.8752 173.4912 158.7968 173.9776A11.166720000000002 11.166720000000002 0 0 0 173.9264 169.3696C176.8448 163.9168 174.7712 157.1328 169.3184 154.24A11.166720000000002 11.166720000000002 0 0 0 152.8832 164.1216C152.8832 165.8624 153.2928 167.552 154.0608 169.1136C154.5216 170.0352 154.1376 171.1616 153.216 171.6224A1.8764799999999997 1.8764799999999997 0 0 1 150.7072 170.7776C149.6576 168.704 149.12 166.4256 149.1456 164.1216C149.1456 155.8528 155.8016 149.1456 164.0704 149.12C172.3392 149.12 179.0464 155.776 179.072 164.0448C179.072 172.3136 172.416 179.0208 164.1472 179.0464H164.1216zM109.1328 135.8848C94.3104 135.8848 82.304 123.8784 82.304 109.056C82.304 105.472 83.0208 101.9392 84.4032 98.6368C84.8128 97.6896 85.9136 97.2288 86.8608 97.6384C87.808 98.048 88.2688 99.1488 87.8592 100.096C82.8672 111.8464 88.3712 125.4144 100.1216 130.3808C111.872 135.3728 125.44 129.8688 130.4064 118.1184C135.3984 106.368 129.8944 92.8 118.144 87.8336A23.0656 23.0656 0 0 0 91.4688 94.208A1.8688 1.8688 0 1 1 88.6016 91.8016C98.1504 80.4608 115.0464 79.0016 126.3872 88.5504S139.1872 114.9952 129.6384 126.336A26.7648 26.7648 0 0 1 109.1072 135.8848zM109.1328 124.16C110.6688 124.16 112.1792 123.9296 113.6384 123.4688C114.6368 123.1616 115.6864 123.7248 115.968 124.7232C116.2752 125.696 115.712 126.7456 114.7392 127.0528C104.8064 130.176 94.208 124.6208 91.1104 114.688C87.9872 104.7552 93.5424 94.1568 103.4752 91.0592S124.0064 93.4912 127.104 103.424C129.152 110.0032 127.4624 117.1712 122.7008 122.1376A1.8944 1.8944 0 0 1 120.0384 122.1888A1.8944 1.8944 0 0 1 119.9872 119.5264A15.091199999999999 15.091199999999999 0 0 0 119.5776 98.176A15.091199999999999 15.091199999999999 0 0 0 98.2272 98.5856A15.091199999999999 15.091199999999999 0 0 0 98.6368 119.936A15.057920000000001 15.057920000000001 0 0 0 109.1072 124.16zM190.1568 118.3744H188.6208A13.081600000000002 13.081600000000002 0 0 1 186.0864 124.4928L187.1616 125.568C187.904 126.3104 187.904 127.488 187.1616 128.2304S185.2416 128.9728 184.4992 128.2304L183.424 127.1552A13.081600000000002 13.081600000000002 0 0 1 177.3056 129.6896V131.2256C177.3056 132.2496 176.4608 133.0944 175.4368 133.0944S173.568 132.2496 173.568 131.2256V129.6896C171.3408 129.3824 169.2416 128.512 167.4496 127.1552L166.3488 128.2304C165.6064 128.9728 164.4288 128.9728 163.6864 128.2304S162.944 126.3104 163.6864 125.568L164.7616 124.4928C163.4048 122.7008 162.5344 120.6016 162.2272 118.3744H160.6912C159.6672 118.3744 158.8224 117.5296 158.8224 116.5056S159.6672 114.6368 160.6912 114.6368H162.2272C162.5344 112.4096 163.4048 110.3104 164.7616 108.5184L163.6864 107.4432C162.944 106.7008 162.944 105.5232 163.6864 104.7808S165.6064 104.0384 166.3488 104.7808L167.4496 105.856C169.2416 104.4992 171.3408 103.6288 173.568 103.3216V101.7856C173.568 100.7616 174.4128 99.9168 175.4368 99.9168S177.3056 100.7616 177.3056 101.7856V103.3216A13.081600000000002 13.081600000000002 0 0 1 183.424 105.856L184.4992 104.7808C185.2416 104.0384 186.4192 104.0384 187.1616 104.7808S187.904 106.7008 187.1616 107.4432L186.0864 108.5184C187.4432 110.3104 188.3136 112.4096 188.6208 114.6368H190.1568C191.1808 114.6368 192.0256 115.4816 192.0256 116.5056S191.1808 118.3744 190.1568 118.3744zM175.4368 106.9312A9.5744 9.5744 0 1 0 175.43936 126.08256A9.5744 9.5744 0 0 0 175.4368 106.9312zM175.4368 122.7264C172.0064 122.7264 169.216 119.936 169.216 116.5056S172.0064 110.2848 175.4368 110.2848S181.6576 113.0752 181.6576 116.5056S178.8672 122.7264 175.4368 122.7264zM175.4368 114.048A2.4576000000000002 2.4576000000000002 0 1 0 175.4368 118.9632A2.4576000000000002 2.4576000000000002 0 0 0 175.4368 114.048z" />
    <glyph glyph-name="filter"
      unicode="&#xEA16;"
      horiz-adv-x="256" d="M248.0128 66.816H202.9312C199.3472 81.3312 186.2144 92.1088 170.5984 92.1088S141.8496 81.3312 138.2656 66.816H7.9872C3.584 66.816 0 63.232 0 58.8032S3.584 50.816 7.9872 50.816H138.2656C141.8496 36.3008 154.9824 25.4976 170.5984 25.4976S199.3472000000001 36.3008 202.9312000000001 50.816H248.0128000000001A7.997440000000001 7.997440000000001 0 0 1 248.0128000000001 66.816zM170.5984 41.4976C161.0496 41.4976 153.2672 49.2544 153.2672 58.8032S161.0496 76.1088 170.5984 76.1088S187.904 68.352 187.904 58.8032S180.1472 41.4976 170.5984 41.4976zM248.0128 205.184H202.9312C199.3472 219.6992 186.2144 230.5024 170.5984 230.5024S141.8496 219.6992 138.2656 205.184H7.9872A7.997440000000001 7.997440000000001 0 0 1 7.9872 189.184H138.2656C141.8496 174.6688 154.9824 163.8912 170.5984 163.8912S199.3472000000001 174.6688 202.9312000000001 189.184H248.0128000000001C252.4160000000001 189.184 256.0000000000001 192.768 256.0000000000001 197.1968S252.4160000000001 205.184 248.0128000000001 205.184zM170.5984 179.8912C161.0496 179.8912 153.2672 187.648 153.2672 197.1968S161.0496 214.5024 170.5984 214.5024S187.904 206.7456 187.904 197.1968S180.1472 179.8912 170.5984 179.8912zM248.0128 135.9872H117.7344C114.1504 150.528 101.0176 161.3056 85.4016 161.3056S56.6528 150.528 53.0688 135.9872H7.9872C3.584 135.9872 0 132.4288 0 128S3.584 119.9872 7.9872 119.9872H53.0688C56.6528 105.472 69.7856 94.6944 85.4016 94.6944S114.1504 105.472 117.7344 119.9872H248.0128000000001C252.4160000000001 119.9872 256 123.5712 256 128S252.416 135.9872 248.0128 135.9872zM85.4016 110.6944C75.8528 110.6944 68.096 118.4512 68.096 128S75.8528 145.3056 85.4016 145.3056S102.7328 137.5488 102.7328 128S94.9504 110.6944 85.4016 110.6944z" />
    <glyph glyph-name="facebook"
      unicode="&#xEA17;"
      horiz-adv-x="256" d="M128 0C57.4208 0 0 57.4208 0 128S57.4208 256 128 256S256 198.5792 256 128S198.5792 0 128 0zM128 249.6C60.9536 249.6 6.4 195.0464 6.4 128S60.9536 6.4 128 6.4S249.6 60.9536 249.6 128S195.0464 249.6 128 249.6zM157.7472 119.9872L161.3056 143.1552H139.1104V158.1824A11.594240000000001 11.594240000000001 0 0 0 152.192 170.7008H162.304V190.4384C156.3648 191.4112 150.3744 191.9232 144.3328 192C126.0288 192 114.048 180.9152 114.048 160.8192V143.1808H93.7216V120.0128H114.0736V64H139.1104V120.0128H157.7472z" />
    <glyph glyph-name="durable"
      unicode="&#xEA18;"
      horiz-adv-x="256" d="M127.36 0C57.1392 0 0 57.1392 0 127.36S57.1392 254.72 127.36 254.72S254.72 197.5808 254.72 127.36S197.5808 0 127.36 0zM127.36 249.0624000000001C60.2624 249.0624000000001 5.6576 194.4576 5.6576 127.36S60.2624 5.6576 127.36 5.6576S249.0624 60.2624 249.0624 127.36S194.4576 249.0624 127.36 249.0624zM190.9504 66.8416C188.4672 75.5456 183.2704 83.2256 176.1024 88.7552A42.0096 42.0096 0 0 1 161.7152 95.9488C161.9456 98.5344 164.096 100.5312 166.7072 100.5312C168.0896 100.5312 169.1904 101.632 169.1904 103.0144S168.0896 105.4976 166.7072 105.4976C163.84 105.4976 161.1008 104.2688 159.2064 102.0928A10.02496 10.02496 0 0 1 151.7056 105.4976A2.4831999999999996 2.4831999999999996 0 0 1 151.7056 100.5312C153.9072 100.5312 155.8272 99.0976 156.4928 97.024C153.0368 97.5104 149.5296 97.5616 146.0736 97.2032A21.808639999999997 21.808639999999997 0 0 1 130.3552 107.4176000000001L130.4064 107.4688000000001L139.4944 116.5568000000001C142.1312 115.9680000000001 144.8192 115.6608000000001 147.5072 115.6608000000001C148.2752 115.6608000000001 149.0688 115.6608000000001 149.9136 115.7376000000001A37.22239999999999 37.22239999999999 0 0 1 174.1312 127.0016000000001A37.22239999999999 37.22239999999999 0 0 1 185.3952 151.2192000000001C185.7024 155.2384000000001 185.2928 159.2832000000001 184.1664 163.1488000000001A2.50368 2.50368 0 0 1 182.4256 164.7616000000001A34.25280000000001 34.25280000000001 0 0 1 173.4656 166.0160000000001H173.44A2.5088 2.5088 0 0 1 170.9312 163.5328000000001C170.9312 162.1504000000001 172.032 161.0496000000001 173.4144 161.0240000000001C175.5648 161.0240000000001 177.7152 160.7680000000001 179.8144 160.2816000000001C180.4544 157.3376000000001 180.6848 154.2912000000001 180.4544 151.2960000000001C179.8656 143.3856000000001 176.384 135.9616 170.6496 130.4832000000001C163.7376 123.2384000000001 153.8048 119.6544000000001 143.8464 120.8064000000001L162.0992 139.0592000000001C163.072 140.0320000000001 163.072 141.6192000000001 162.0992 142.5920000000001C161.1264 143.5648000000001 159.5392 143.5648000000001 158.5664 142.5920000000001L140.3136 124.3392000000001C139.1616 134.2976000000001 142.7456 144.2048000000001 149.9648 151.1424000000001C151.8335999999999 153.0368000000001 153.9327999999999 154.7008000000001 156.16 156.1344000000001A2.4831999999999996 2.4831999999999996 0 1 1 153.4976 160.3328000000001C150.9376 158.6944000000001 148.5824 156.8000000000001 146.432 154.6496000000001A37.22239999999999 37.22239999999999 0 0 1 135.168 130.4320000000001C134.9376 126.9504000000001 135.2192 123.4432000000001 135.9872 120.0384000000001L129.8943999999999 113.9456000000001V159.104H130.816C135.68 159.104 144.4096 159.9744 150.1952 165.6576C157.952 173.2608 156.9024 186.5472 156.6975999999999 188.5696A2.4831999999999996 2.4831999999999996 0 0 1 154.368 190.8992C153.1647999999999 191.0016 139.7503999999999 191.9744 131.84 184.2176C124.6976 177.2032 124.7744 165.6576 124.9792 162.2784C124.928 162.0992 124.928 161.92 124.928 161.7408V152.2432C123.3152 154.9056 121.3696 157.3632 119.168 159.5648C113.0752 165.8624 104.832 169.7024 96.0768 170.2912C92.2368 170.5728 88.3968 170.1888 84.6848 169.1136C83.8912 168.832 83.2768 168.192 83.072 167.3728C79.7952 155.0336 83.4815999999999 141.9008 92.6976 133.0944A35.48416 35.48416 0 0 1 118.0672 122.2912C120.3712 122.2912 122.6752 122.5216 124.928 122.9824V107.4944A21.80096 21.80096 0 0 1 108.7232 97.2032C105.2416 97.5616 101.76 97.5104 98.304 97.024C98.9696 99.1232 100.8896 100.5312 103.0912 100.5312A2.4831999999999996 2.4831999999999996 0 0 1 103.0912 105.4976C100.224 105.4976 97.4848 104.2688 95.5904 102.0928A10.02496 10.02496 0 0 1 88.0896 105.4976A2.4831999999999996 2.4831999999999996 0 0 1 88.0896 100.5312C90.6752 100.5312 92.8512 98.5344 93.056 95.9488C87.8336 94.5152 82.944 92.0832 78.6688 88.7552C71.5007999999999 83.2256 66.304 75.5456 63.8208 66.8416C63.4368 65.5104 64.2304 64.1536 65.536 63.7696C65.7664 63.7184 65.9711999999999 63.6672 66.2015999999999 63.6672H188.5952C189.9776 63.6672 191.0784 64.7936 191.0784 66.1504C191.0784 66.3808 191.0528 66.6112 190.976 66.816zM135.296 180.7104C140.1344 185.4464 148.0448 186.0608 151.8336 186.0608C151.936 182.1952 151.5264 173.9776 146.6624 169.216A21.411840000000005 21.411840000000005 0 0 0 133.4272 164.1984L140.928 171.6992C141.8752 172.672 141.8752 174.2592 140.8768 175.2064A2.48832 2.48832 0 0 1 137.3952 175.2064L130.048 167.8592A20.9408 20.9408 0 0 0 135.296 180.7104zM124.8768 132.2752C124.8512 131.8144 124.8 131.4048 124.7744 130.9952L110.2592 145.5104A2.496 2.496 0 0 1 106.752 145.5616C105.7792 144.6144 105.7536 143.0272 106.7008 142.0544L106.752 142.0032L121.2672 127.488C111.9232 126.4896 102.6816 129.8944 96.1792 136.6528A30.087680000000002 30.087680000000002 0 0 0 87.5008 164.7872C90.2656 165.376 93.1072 165.5808 95.9232 165.376C103.3984 164.8384 110.4128 161.536 115.6096 156.1088C121.0368 150.912 124.3392 143.8976 124.8768 136.4224V132.3008zM83.4048 68.6848A22.6816 22.6816 0 0 0 95.0528 80.2304C96.3328 80.7424 96.9216 82.2016 96.4096 83.4816S94.4384 85.3504 93.1584 84.8384L93.056 84.7872A27.596799999999998 27.596799999999998 0 0 1 78.0544 68.6848H69.632A37.0176 37.0176 0 0 0 109.6704 92.0832C110.72 91.9296 111.7696 92.4672 112.256 93.4144A16.9728 16.9728 0 0 0 135.0912 100.864C138.2912 99.2256 140.9024 96.6144000000001 142.5408 93.4144C143.0272 92.4672 144.0512 91.9296 145.1264 92.0832C162.304 94.6432 178.9696 84.9152 185.1648 68.6848H83.3792zM166.2208 163.0208A2.496 2.496 0 0 1 163.1488 164.7616L162.944 164.7104A2.496 2.496 0 0 1 164.2752 159.8976H164.3264L164.48 159.9488C165.8112 160.3072 166.5792 161.6896 166.2208 163.0208zM104.2176 87.1168H104.064A2.4831999999999996 2.4831999999999996 0 0 1 104.064 82.1504H104.2176C105.6 82.1504 106.7008 83.2512 106.7008 84.6336S105.6 87.1168 104.2176 87.1168z" />
    <glyph glyph-name="consistent-"
      unicode="&#xEA19;"
      horiz-adv-x="256" d="M128 0C57.4208 0 0 57.4208 0 128S57.4208 256 128 256S256 198.5792 256 128S198.5792 0 128 0zM128 250.3168C60.5696 250.3168 5.6832 195.4304 5.6832 128S60.544 5.6832 128 5.6832S250.3168 60.544 250.3168 128S195.4304 250.3168 128 250.3168zM114.2272 185.3696L102.8608 190.4128C101.8368 190.9248 100.5824 190.5152 100.0704 189.4656C99.5584 188.4416 99.968 187.1872 101.0176 186.6752L101.1712 186.5984L107.5712 183.7568A61.1712 61.1712 0 0 1 69.9392 142.2592C69.6064 141.1584 70.2208 140.0064 71.3216 139.6736C72.4224 139.3408 73.5744 139.9552 73.9072 141.056C73.9072 141.1072 73.9328 141.1584 73.9328 141.184A56.94208 56.94208 0 0 0 109.568 180.0704L105.9328 171.904C105.472 170.8544 105.9328 169.6256 106.9824 169.1392C108.032 168.6784 109.2608 169.1392 109.7472 170.1888L115.2768 182.6048A2.1248 2.1248 0 0 1 114.2272 185.344zM191.104 155.0848C190.0544 155.5456 188.8256 155.0848 188.3648 154.0096L185.5744 147.6096A61.04064 61.04064 0 0 1 144.3584 185.4464C143.2576 185.8048 142.1056 185.1904 141.7472 184.0896C141.3888 182.9888 142.0032 181.8368 143.104 181.4784C143.1552 181.4784 143.232 181.4528 143.2832 181.4272A56.9088 56.9088 0 0 0 181.9136 145.5104L173.8496 149.1712A2.0864000000000003 2.0864000000000003 0 1 1 171.9296 145.4592C172.0064 145.4336 172.0576 145.3824 172.1344 145.3568L184.4224 139.776C185.472 139.3152 186.7008 139.776 187.1872 140.8256L192.2048 152.2944C192.6656 153.344 192.2048 154.5728 191.1296 155.0336zM185.8048 113.1008A2.09408 2.09408 0 0 1 183.2448 111.6416A56.99840000000001 56.99840000000001 0 0 0 147.3536 72.6016C147.328 72.6016 147.2768 72.6016 147.2768 72.6272V72.6784L150.0416 80.1792C150.4512 81.1776 150.0416 82.3296 149.1456 82.8928A2.06592 2.06592 0 0 1 146.3296 82.0736A0.9472 0.9472 0 0 1 146.2016 81.792L141.8752 70.1184C141.4656 69.0176 142.0288 67.7632 143.1552 67.3536L155.776 62.72C156.8768 62.3872 158.0288 63.0016 158.3872 64.1024A2.0991999999999997 2.0991999999999997 0 0 1 157.2096 66.6368L150.3232 69.1712S150.272 69.2224 150.2976 69.248C150.2976 69.248 150.2976 69.2736 150.3232 69.2736A61.18144 61.18144 0 0 1 187.2896 110.5664A2.0556800000000006 2.0556800000000006 0 0 1 185.8304 113.1008zM115.1232 68.7872A2.09408 2.09408 0 0 1 113.664 71.3472A56.9088 56.9088 0 0 0 74.6496 107.2384C74.6496 107.264 74.6496 107.3152 74.6752 107.3152H74.7264L82.2272 104.5504C83.2256 104.1408 84.3776 104.5504 84.9408 105.4464C85.504 106.4448 85.12 107.7248 84.1216 108.2624A0.9472 0.9472 0 0 1 83.84 108.3904L72.1664 112.7168A2.1529599999999998 2.1529599999999998 0 0 1 69.4016 111.4368L64.7936 98.816C64.4608 97.7152 65.0752 96.5632 66.176 96.2048C67.2 95.8976 68.3008 96.4096 68.7104 97.3824L71.2448 104.2688S71.296 104.32 71.3216 104.2944C71.3216 104.2944 71.3472 104.2944 71.3472 104.2688A61.140480000000004 61.140480000000004 0 0 1 112.6144 67.3024C113.7152 66.9952 114.8672 67.6608 115.1488 68.7616C115.4304 69.888 114.8672 67.6608 115.1488 68.7616z" />
    <glyph glyph-name="close"
      unicode="&#xEA1A;"
      horiz-adv-x="256" d="M155.1616 128L237.2096 210.0224L254.1312 226.944C256.6144 229.4528 256.6144 233.4976 254.1312 235.9808L236.032 254.08C233.5232 256.5632 229.4784 256.5632 226.9952 254.08L128 155.136L29.056 254.1312C26.5472 256.6144 22.5024 256.6144 20.0192 254.1312L1.8944 236.0064C-0.5888 233.4976 -0.5888 229.4528 1.8944 226.9696L100.864 128L1.8688 29.0304C-0.6144 26.5216 -0.6144 22.4768 1.8688 19.9936L19.968 1.8944C22.4768 -0.5888 26.5216 -0.5888 29.0048 1.8944L128 100.8384L210.048 18.7904L226.9696 1.8688C229.4784 -0.6144 233.5232 -0.6144 236.0064 1.8688L254.1056 19.968C256.5888 22.4768 256.5888 26.5216 254.1056 29.0048L155.1616 128z" />
    <glyph glyph-name="chevron-up"
      unicode="&#xEA1B;"
      horiz-adv-x="256" d="M128 168.7808L15.5392 56.32L0.0768 71.7824L128 199.68L255.9232 71.7568L240.4608 56.2944L128 168.7808z" />
    <glyph glyph-name="chevron-right"
      unicode="&#xEA1C;"
      horiz-adv-x="256" d="M56.32 240.4608L71.7824 255.9232L199.7056 128L71.7824 0.0768L56.32 15.5392L168.7808 128L56.32 240.4608z" />
    <glyph glyph-name="chevron-left"
      unicode="&#xEA1D;"
      horiz-adv-x="256" d="M87.2192 128L199.68 15.5392L184.2176 0.0768L56.32 128L184.2176 255.9232L199.68 240.4608L87.2192 128z" />
    <glyph glyph-name="chevron-down"
      unicode="&#xEA1E;"
      horiz-adv-x="256" d="M240.4608000000001 199.68L255.9232000000001 184.2176L128 56.2944L0.0768 184.2176L15.5392 199.68L128 87.2192L240.4608000000001 199.68z" />
    <glyph glyph-name="checkout-check"
      unicode="&#xEA1F;"
      horiz-adv-x="256" d="M92.672 3.072C84.736 3.072 77.312 6.656 71.936 12.544L6.656 88.832C-3.072 100.352 -1.792 117.504 9.728 127.232S38.4 135.68 48.128 124.16L90.88 74.24L225.792 237.312C246.784 266.496 268.544 250.368 247.552 220.928L114.688 14.592C109.824 7.68 102.144 3.584 93.696 3.328L92.672 3.072z" />
    <glyph glyph-name="checkbox-check"
      unicode="&#xEA20;"
      horiz-adv-x="256" d="M252.6208000000001 210.56L245.1712000000001 218.0608A10.51392 10.51392 0 0 1 230.2976 218.112L230.2464 218.0608L86.2976 75.4432L25.5488 136.576A10.51392 10.51392 0 0 1 10.6752 136.6272L10.624 136.576L3.1232 129.1264A10.51392 10.51392 0 0 1 3.072 114.2528L3.1232 114.2016L78.7456 37.9392C82.8416 33.8176 89.4976 33.792 93.6192 37.888L93.6704 37.9392L252.5952 195.584C256.8192 199.552 257.2032 206.0544 253.2352 210.2784C253.0816 210.432 252.928 210.5856 252.5952 210.56H252.6208z" />
    <glyph glyph-name="bin"
      unicode="&#xEA21;"
      horiz-adv-x="256" d="M176.0256 179.9936V44.0064C176.0256 41.8048 174.2336 40.0128 172.0320000000001 40.0128H164.0192000000001C161.8176 40.0128 160.0256000000001 41.8048 160.0256000000001 44.0064V179.9936C160.0256000000001 182.1952 161.8176000000001 183.9872 164.0192000000001 183.9872H172.0320000000001C174.2336000000001 183.9872 176.0256 182.1952 176.0256 179.9936zM92.032 183.9872H84.0192C81.8176 183.9872 80.0256 182.1952 80.0256 179.9936V44.0064C80.0256 41.8048 81.8176 40.0128 84.0192 40.0128H92.032C94.2336 40.0128 96.0256 41.8048 96.0256 44.0064V179.9936C96.0256 182.1952 94.2336 183.9872 92.032 183.9872zM124.032 40.0128H132.0704C134.2720000000001 39.9872 136.064 41.7792 136.064 43.9808V179.9936C136.064 182.1952 134.272 183.9872 132.0704 183.9872H124.0320000000001C121.8304000000001 183.9872 120.0384000000001 182.1952 120.0384000000001 179.9936V44.0064C120.0384000000001 41.8048 121.8304000000001 40.0128 124.0320000000001 40.0128zM236.032 224H184.0384L167.2192 246.4A24.005119999999998 24.005119999999998 0 0 1 148.0192 256H108.032C100.48 256 93.3632 252.4416 88.832 246.4L72.0128 224H20.0192C17.8176 224 16.0256 222.208 16.0256 220.0064V211.9936C16.0256 209.792 17.8176 208 20.0192 208H31.9744V23.9872C31.9744 10.752 42.7008 0 55.9616 0H200.0384C213.2992 0 224.0256 10.752 224.0256 23.9872V208H235.9808C238.1824000000001 208 239.9744 209.792 239.9744 211.9936V220.0064C239.9744 222.1824 238.208 223.9744 236.032 224zM101.632 236.8C103.1424 238.7968 105.5232 239.9744 108.032 240H148.0192C150.528 239.9744 152.9088 238.7968 154.4192 236.7744L164.0192 223.9744H92.032L101.632 236.8zM208.0256 23.9872C208.0256 19.584 204.4416 16 200.0128 16H56.0384C51.6096 16 48.0256 19.584 48.0256 23.9872V208H208.0256V23.9872z" />
    <glyph glyph-name="arrow-up"
      unicode="&#xEA22;"
      horiz-adv-x="256" d="M2.56 123.6992L6.6048 119.6544A6.845440000000001 6.845440000000001 0 0 1 16.3072 119.6544L118.272 221.6192V6.8608C118.272 3.072 121.344 0 125.1328 0H130.8672C134.656 0 137.728 3.072 137.728 6.8608V221.6448L239.6928 119.68A6.845440000000001 6.845440000000001 0 0 1 249.3952 119.68L253.44 123.7248A6.860800000000001 6.860800000000001 0 0 1 253.44 133.4016L132.8384 253.9776A6.845440000000001 6.845440000000001 0 0 1 123.136 253.9776L2.56 133.376A6.860800000000001 6.860800000000001 0 0 1 2.56 123.6992z" />
  </font>
</defs>
</svg>
